<svg xmlns="http://www.w3.org/2000/svg"
shape-rendering="geometricPrecision"
width="4000" height="4000" viewBox="0 0 740 740">
  <metadata>null</metadata>

<path d="
M 33.979 455.116
C 35.583 441.179 44.994 429.527 59.112 426.992
C 61.785 426.512 64.408 426.356 67.119 426.531
C 70.28 426.735 73.255 427.33 76.19 425.79
C 78.459 424.599 79.806 422.117 80.96 419.937
C 83.535 415.077 85.624 410.012 87.967 405.045
C 88.759 403.368 89.514 401.632 90.434 400.021
C 90.897 399.209 91.671 398.342 91.876 397.416
C 92.106 396.38 91.222 395.004 90.938 394.026
C 90.142 391.286 89.189 388.528 88.102 385.89
C 84.272 376.59 81.5 366.783 77.968 357.359
C 71.093 339.013 64.521 320.556 57.651 302.205
C 51.794 286.563 45.485 270.893 42.085 254.474
C 41.277 250.571 40.614 246.49 40.949 242.495
C 41.1 240.688 41.468 238.841 42.097 237.14
C 45.217 228.71 53.648 226.264 61.399 223.664
C 64.879 222.497 68.391 221.214 71.96 220.342
C 77.983 218.871 84.252 216.208 90.513 216.146
C 93.76 216.113 97.095 218.467 95.807 222.111
C 94.316 224.127 91.227 224.918 89.032 225.908
C 82.66 228.783 76.059 231.298 69.488 233.695
C 67.093 234.569 61.591 235.638 60.561 238.174
C 63.161 238.177 66.392 236.483 68.877 235.679
C 75.635 233.493 82.254 230.866 89.142 229.105
C 91.877 228.405 94.758 227.074 97.621 227.224
C 99.186 227.892 100.137 229.585 99.452 231.208
C 98.178 232.512 96.354 233.16 94.723 233.901
C 92.23 235.033 89.768 236.18 87.215 237.174
C 79.448 240.202 71.628 243.281 64.1 246.849
C 64.354 248.145 65.14 247.874 66.217 247.465
C 68.406 246.632 70.646 245.976 72.867 245.228
C 80.471 242.669 88.339 239.856 96.161 238.057
C 98.706 237.471 103.938 236.049 103.188 240.712
C 102.261 242.969 97.755 244.054 95.676 244.95
C 89.037 247.81 82.502 250.952 75.769 253.594
C 73.611 254.441 71.448 255.172 69.354 256.178
C 68.586 256.548 67.437 257.038 67.469 258.016
C 68.432 258.445 69.829 257.661 70.797 257.392
C 73.142 256.741 75.504 256.119 77.815 255.352
C 84.046 253.283 90.317 251.235 96.638 249.452
C 99.349 248.688 102.325 247.232 105.181 247.334
C 106.748 247.891 107.489 249.717 107.254 251.284
C 105.637 254.026 100.283 255.09 97.55 256.398
C 92.193 258.962 86.735 261.232 81.285 263.589
C 78.086 264.973 74.745 266.084 71.728 267.849
C 71.797 269.306 72.87 269.271 74.04 268.985
C 76.224 268.45 78.315 267.565 80.453 266.881
C 88.867 264.188 97.331 261.696 105.815 259.23
C 106.957 258.898 108.518 258.354 109.703 258.734
C 111.423 259.285 112.151 261.695 111.344 263.193
C 109.279 265.199 106.049 265.883 103.514 267.124
C 97.282 270.172 90.72 272.544 84.337 275.257
C 81.516 276.456 78.391 277.329 75.809 279.003
C 75.836 280.361 76.895 279.952 77.914 279.714
C 80.274 279.161 82.573 278.344 84.9 277.668
C 91.449 275.765 97.93 273.662 104.504 271.837
C 107.538 270.994 110.953 269.472 114.144 269.7
C 115.143 270.752 115.978 272.227 115.695 273.719
C 114.724 275.608 110.973 276.476 109.173 277.409
C 102.779 280.722 95.823 283.467 89.092 286.011
C 86.912 286.835 84.689 287.771 82.655 288.911
C 81.735 289.426 80.584 289.919 80.588 291.104
C 81.245 291.752 82.169 291.166 82.951 290.877
C 84.925 290.146 86.958 289.542 88.995 289.01
C 97.01 286.914 104.782 283.84 112.852 281.928
C 115.352 281.336 121.228 279.636 120.299 284.584
C 119.09 286.572 115.625 287.32 113.639 288.33
C 106.976 291.72 99.954 294.532 93.014 297.292
C 90.795 298.175 88.433 299.01 86.321 300.124
C 85.418 300.601 84.299 301.036 84.719 302.217
C 85.989 302.404 87.354 301.836 88.56 301.471
C 90.882 300.768 93.227 300.145 95.546 299.417
C 101.75 297.467 107.999 295.573 114.314 294.003
C 117.17 293.293 120.067 292.044 123.027 291.998
C 124.617 292.818 125.383 294.886 124.809 296.553
C 122.809 298.561 119.67 299.161 117.181 300.352
C 111.225 303.201 104.889 305.637 98.711 307.951
C 96.74 308.689 94.752 309.401 92.769 310.1
C 91.616 310.506 90.056 310.916 89.226 311.853
C 89.266 312.332 89.261 312.922 89.76 313.183
C 90.387 313.511 91.788 312.875 92.388 312.663
C 94.368 311.963 96.346 311.358 98.346 310.728
C 104.682 308.731 111.115 307.009 117.485 305.109
C 121.081 304.037 124.74 302.132 128.518 303.073
C 129.309 302.377 129.753 299.797 130.252 298.729
C 132.062 294.859 133.704 290.91 135.48 287.023
C 142.081 272.576 148.294 257.872 154.282 243.159
C 156.341 238.1 158.576 233.114 160.642 228.057
C 161.319 226.399 161.84 223.667 163.96 223.394
C 167.629 224.904 167.817 231.764 167.831 235.035
C 167.88 246.383 163.14 257.012 159.777 267.625
C 157.455 274.154 154.999 280.692 152.84 287.273
C 151.265 292.021 149.35 296.664 147.837 301.432
C 146.154 306.633 144.023 311.666 142.292 316.846
C 140.548 321.522 138.809 326.34 137.287 331.083
C 135.892 334.567 141.811 335.438 139.757 339.6
C 137.867 342.108 134.033 342.531 132.387 344.986
C 130.94 347.146 130.435 350.182 129.468 352.583
C 126.664 359.545 124.086 366.711 121.711 373.829
C 119.921 378.735 117.929 383.607 116.327 388.578
C 115.837 389.82 114.732 391.714 114.774 393.03
C 114.811 394.208 115.515 395.444 115.961 396.513
C 116.798 398.518 117.491 400.6 118.209 402.649
C 120.545 409.32 123.1 415.916 125.434 422.588
C 126.812 426.529 127.898 431.373 130.076 434.93
C 138.525 435.613 147.165 439.397 152.696 446.045
C 162.798 458.187 162.508 479.739 149.642 489.991
C 149.211 491.37 150.84 494.088 151.354 495.437
C 152.559 498.601 153.842 501.734 154.93 504.94
C 155.692 507.182 156.28 509.668 158.079 511.334
C 159.788 512.917 161.886 514.171 163.83 515.446
C 164.809 516.088 166.039 516.769 166.587 517.856
C 166.937 518.549 166.366 519.414 166.011 519.984
C 165.11 521.433 163.449 523.674 161.545 523.649
C 159.523 523.621 156.505 519.898 155.441 518.395
C 146.793 520.469 137.768 513.071 133.418 506.286
C 131.959 504.01 131.425 500.588 129.607 498.65
C 120.469 498.962 111.064 493.295 105.941 485.937
C 103.006 481.721 100.016 472.511 93.4 473.237
C 92.179 473.772 91.335 475.097 90.561 476.136
C 89.333 477.786 87.991 479.362 86.509 480.79
C 82.936 484.229 78.299 486.529 73.659 488.13
C 52.906 495.291 31.865 476.029 33.979 455.116 Z
M 90.502 444.989
C 89.292 441.62 87.225 438.646 86.852 434.989
C 86.181 428.404 90.931 423.731 92.928 417.943
C 94.494 415.96 95.914 413.43 97.35 411.318
C 97.488 410.476 96.961 409.365 96.729 408.554
C 96.002 406.02 94.867 402.95 93.324 400.819
C 92.489 402.263 91.804 403.8 91.231 405.368
C 89.375 410.592 86.773 415.754 84.018 420.556
C 81.946 424.167 79.787 427.65 75.68 429.165
C 71.885 430.565 67.45 429.255 63.496 429.405
C 56.863 429.657 50.188 432.644 45.554 437.391
C 34.534 448.384 34.584 466.264 44.904 477.603
C 54.569 488.911 70.841 488.534 82.239 480.327
C 84.2 478.915 85.791 477.122 87.217 475.186
C 89.269 472.399 91.066 469.227 94.996 469.795
C 101.763 470.773 103.95 476.861 107.163 481.967
C 110.091 486.619 114.405 490.644 119.326 493.112
C 121.61 494.258 123.971 495.081 126.519 495.335
C 127.182 495.401 128.356 495.85 128.978 495.586
C 128.412 493.418 127.329 490.304 125.953 488.507
C 122.837 487.732 120.303 486.626 117.594 484.884
C 110.16 478.91 107.372 470.2 109.355 461.025
C 109.929 458.368 110.655 455.582 112.391 453.426
C 113.03 451.575 111.198 448.106 110.493 446.368
C 105.893 450.182 105.343 457.181 100.663 460.733
C 98.403 461.637 95.923 459.852 94.912 457.882
C 92.889 453.938 93.291 448.647 90.502 444.989 Z
M 63.715 286.103
C 60.029 275.029 55.752 263.983 53.204 252.569
C 52.383 248.89 50.463 243.197 52.58 239.712
C 55.111 235.544 60.773 233.677 65.053 231.954
C 74.259 228.249 83.894 225.423 92.667 220.76
C 92.926 219.266 90.377 219.227 89.477 219.332
C 85.947 219.745 82.312 220.618 78.904 221.627
C 72.519 222.762 66.455 225.042 60.34 227.122
C 54.245 229.194 47.616 231.663 44.95 238.067
C 43.385 241.828 43.945 246.348 44.507 250.248
C 45.648 258.174 47.972 265.84 50.484 273.422
C 57.591 294.882 66.117 315.916 73.995 337.101
C 76.859 344.804 79.538 352.572 82.471 360.249
C 83.413 362.713 84.307 365.198 85.193 367.682
C 85.526 368.616 85.614 369.741 86.174 370.569
C 86.853 374.382 88.886 378.045 90.136 381.71
C 92.983 390.056 96.009 398.338 99.445 406.45
C 99.109 408.738 100.94 411.724 101.72 413.849
C 104.103 420.35 106.842 426.72 109.157 433.25
C 116.151 452.986 123.094 472.871 130.95 492.277
C 132.388 495.828 133.429 499.628 135.331 502.969
C 139.626 510.513 146.636 515.308 155.322 516.305
C 155.355 515.683 155.009 515.136 154.84 514.547
C 154.048 510.884 152.211 507.506 150.905 504.012
C 149.209 499.473 147.55 494.871 146.131 490.238
C 137.548 462.207 126.515 434.946 116.616 407.367
C 112.411 395.653 107.149 384.042 103.822 372.053
C 102.618 368.582 102.991 365.514 103.198 361.935
C 103.82 360.76 103.856 359.272 104.445 358.041
C 105.386 356.077 106.706 354.662 108.353 353.286
C 114.173 349.877 120.298 347.159 126.377 344.235
C 129.466 342.749 133.841 341.229 136.169 338.657
C 136.315 337.954 136.371 337.394 136.123 336.709
C 129.695 337.849 123.446 340.48 117.325 342.691
C 113.66 344.015 109.788 345.019 106.067 346.176
C 102.097 347.411 97.191 349.828 92.994 348.888
C 88.106 347.794 85.96 343.046 84.112 338.883
C 82.108 334.368 80.509 329.684 78.599 325.129
C 76.048 319.041 73.105 312.928 71.237 306.587
C 69.144 299.627 65.787 293.054 63.715 286.103 Z
M 81.188 323.114
C 82.903 328.281 85.238 333.405 87.496 338.356
C 88.793 341.2 90.051 344.183 92.867 345.852
C 95.019 347.127 96.698 345.732 98.757 346.252
C 99.016 344.959 98.391 343.48 98.486 342.135
C 100.921 339.887 104.298 339.145 107.31 337.96
C 113.443 335.546 119.351 332.974 125.605 330.873
C 127.705 330.168 129.732 329.198 131.804 328.413
C 132.15 328.281 133.792 327.57 133.459 326.905
C 133.247 326.483 131.454 327.284 131.159 327.395
C 128.62 328.358 125.856 328.725 123.294 329.708
C 116.926 332.151 110.505 334.367 104.012 336.47
C 102.165 337.069 98.082 339.13 96.209 337.896
C 95.367 337.342 95.053 336.284 94.516 335.495
C 93.696 331.352 97.26 330.465 100.405 329.085
C 104.77 327.171 109.072 325.078 113.487 323.281
C 115.942 322.281 118.466 321.64 120.902 320.588
C 123.232 319.582 125.683 318.903 128.025 317.907
C 128.603 317.661 130.315 317.157 129.709 316.249
C 128.189 316.576 126.835 317.593 125.341 318.069
C 118.861 320.134 112.179 321.985 105.553 323.544
C 102.796 324.233 100.022 325.278 97.333 326.205
C 95.859 326.713 94.135 327.49 92.546 327.292
C 89.138 326.602 89.324 321.91 91.812 320.343
C 94.214 318.83 97.174 318.041 99.772 316.91
C 104.321 314.93 108.842 312.772 113.508 311.074
C 116.359 310.036 119.228 309.02 122.064 307.944
C 122.407 307.814 125.015 307.059 124.49 306.508
C 124.01 306.005 122.619 306.953 122.148 307.139
C 120.214 307.903 117.937 308.26 115.922 308.799
C 108.845 310.692 101.873 312.937 94.888 315.163
C 92.913 315.793 89.215 317.74 87.338 316.165
C 86.231 315.237 84.611 312.659 85.489 311.187
C 86.278 309.865 88.106 309.048 89.445 308.432
C 96.671 305.11 104.209 302.474 111.462 299.185
C 113.744 298.15 116.161 297.448 118.454 296.448
C 118.615 296.377 120.491 295.609 120.366 295.423
C 119.94 294.791 118.923 295.8 118.502 295.896
C 116.263 296.411 114.122 297.621 111.857 297.988
C 105.017 299.096 98.176 301.578 91.53 303.518
C 88.996 304.258 86.264 305.774 83.55 305.431
C 81.365 303.567 80.248 300.475 82.947 298.606
C 85.36 296.935 88.382 296.134 91.072 295.021
C 96.4 292.816 101.654 290.472 106.859 288.003
C 108.603 287.175 110.434 286.433 112.255 285.787
C 112.437 285.722 114.322 285.185 114.252 284.904
C 113.993 283.857 112.508 285.312 111.98 285.384
C 109.606 285.708 107.269 286.655 104.93 287.259
C 99.477 288.669 93.967 290.272 88.656 292.142
C 86.28 292.978 82.214 294.716 79.672 294.195
C 77.832 293.818 77.044 291.025 76.72 289.476
C 77.018 287.048 81.468 285.934 83.382 285.176
C 90.268 282.45 96.979 279.305 103.789 276.416
C 105.599 275.649 107.51 274.921 109.358 274.265
C 110.004 274.035 111.329 273.804 111.525 273.049
C 110.534 272.871 109.719 273.557 108.848 273.899
C 107.03 274.612 105.127 274.99 103.259 275.56
C 95.907 277.804 88.458 279.943 81.047 282.028
C 79.264 282.53 77.403 283.515 75.493 283.319
C 73.286 283.092 71.962 279.324 72.551 277.485
C 73.886 275.405 77.469 274.719 79.677 273.912
C 85.655 271.728 91.385 269.018 97.206 266.462
C 99.398 265.499 101.642 264.661 103.916 263.913
C 104.76 263.635 105.634 263.393 106.45 263.032
C 106.782 262.884 107.586 262.691 107.35 262.415
C 106.891 261.878 105.769 262.47 105.302 262.674
C 103.331 263.533 100.984 264.144 98.924 264.661
C 94.175 265.853 89.324 266.984 84.65 268.451
C 80.662 269.702 76.556 271.559 72.419 272.209
C 69.549 272.661 67.55 268.967 68.459 266.447
C 70.086 264.407 73.291 263.691 75.6 262.702
C 80.72 260.51 85.758 258.121 90.881 255.937
C 93.234 254.934 95.595 253.987 97.962 253.008
C 98.85 252.64 99.81 252.461 100.712 252.112
C 100.753 252.096 101.795 251.82 101.365 251.509
C 100.944 251.205 99.945 251.896 99.499 251.963
C 97.398 252.282 95.522 253.297 93.434 253.713
C 86.997 254.996 80.731 257.612 74.478 259.575
C 72.414 260.223 69.008 262.019 66.85 261.56
C 64.033 259.977 63.001 256.014 66.08 254.187
C 68.545 252.725 71.619 252.002 74.25 250.857
C 79.376 248.626 84.514 246.452 89.674 244.324
C 91.844 243.429 93.961 242.446 96.15 241.596
C 96.344 241.521 98.265 240.805 97.926 240.374
C 97.676 240.057 96.957 240.561 96.75 240.662
C 95.812 241.121 94.87 241.4 93.962 241.934
C 86.811 243.584 79.565 246.272 72.576 248.639
C 69.985 249.516 66.033 251.61 63.281 251.078
C 61.292 250.018 60.349 247.535 61.021 245.427
C 63.048 242.914 67.356 241.752 70.27 240.588
C 75.939 238.322 81.647 236.14 87.284 233.813
C 89.553 232.877 92.781 232.657 94.736 231.179
C 94.723 230.988 91.967 231.544 91.575 231.664
C 88.496 232.61 85.387 233.415 82.371 234.559
C 77.727 236.32 72.893 237.543 68.253 239.366
C 65.713 240.364 62.371 241.913 59.593 241.732
C 58.058 241.632 58.019 239.995 56.884 239.631
C 54.822 241.748 54.882 244.268 55.312 247.021
C 56.091 252.013 57.876 256.941 59.324 261.771
C 63.818 276.767 69.246 291.547 74.729 306.207
C 76.84 311.851 79.316 317.384 81.188 323.114 Z
M 90.4 431.567
C 88.92 437.869 94.418 444.323 96.193 450.18
C 96.91 452.542 96.819 455.463 98.614 457.345
C 99.462 457.227 100.13 456.346 100.589 455.682
C 101.904 453.781 102.607 451.483 103.818 449.51
C 104.812 447.893 105.919 446.36 106.985 444.792
C 107.45 444.109 108.204 443.329 108.289 442.467
C 108.391 441.442 107.77 440.264 107.428 439.328
C 106.666 437.245 106.062 435.107 105.293 433.024
C 103.052 426.963 101.44 420.617 99.027 414.632
C 97.725 415.47 96.74 417.786 95.987 419.155
C 93.785 423.158 91.935 427.278 90.4 431.567 Z
M 93.821 322.885
C 93.632 323.994 93.427 323.618 93.967 324.161
C 95.991 324.351 98.531 322.864 100.436 322.244
C 105.333 320.649 110.234 318.975 115.209 317.621
C 117.121 317.101 121.003 316.915 122.422 315.577
C 123.384 314.182 124.683 311.505 124.99 309.852
C 124.177 309.631 123.254 310.135 122.473 310.41
C 120.487 311.107 118.573 312.036 116.675 312.937
C 111.33 315.473 105.798 317.518 100.41 319.95
C 98.272 320.915 95.732 321.505 93.821 322.885 Z
M 97.856 333.423
C 97.735 333.898 97.425 334.848 98.229 334.988
C 98.868 335.1 99.876 334.566 100.455 334.344
C 101.899 333.788 103.356 333.322 104.837 332.876
C 107.577 332.052 110.323 331.3 113.016 330.332
C 113.906 330.012 115.148 329.846 115.819 329.114
C 116.719 328.131 117.571 325.489 117.721 324.175
C 115.295 325.751 112.123 326.73 109.486 327.991
C 105.659 329.925 101.775 331.69 97.856 333.423 Z
M 102.303 342.984
C 102.303 344.293 103.309 343.916 104.308 343.613
C 106.106 343.067 107.961 342.447 109.633 341.588
C 110.42 341.183 111.97 341.003 111.578 339.831
C 108.736 339.232 104.758 341.784 102.303 342.984 Z
M 115.369 382.986
C 116.231 381.328 116.553 379.229 117.238 377.459
C 119.799 370.848 121.509 363.903 124.222 357.368
C 125.147 354.815 126.158 352.292 127.068 349.732
C 127.17 349.445 128.22 347.276 127.622 347.176
C 127.03 347.076 125.549 347.948 125 348.201
C 122.932 349.153 120.918 350.221 118.852 351.176
C 116.126 352.437 111.771 353.866 109.752 356.151
C 108.672 357.374 108.595 359.745 108.013 361.27
C 107.45 362.744 106.438 364.399 106.331 365.985
C 105.998 370.879 108.804 376.818 110.565 381.264
C 111.496 383.615 111.956 386.442 113.247 388.618
C 113.71 389.011 113.777 387.757 113.845 387.459
C 114.185 385.984 114.851 384.414 115.369 382.986 Z
M 111.917 463.081
C 110.759 469.67 113.708 477.405 118.782 481.732
C 120.342 483.063 122.777 484.685 124.888 484.828
C 124.824 483.994 124.094 483.003 123.777 482.219
C 122.934 480.132 122.073 478.064 121.278 475.957
C 119.824 472.102 118.328 468.257 116.898 464.392
C 116.012 461.996 115.557 459.349 114.522 457.033
C 112.848 458.11 112.344 461.232 111.917 463.081 Z
M 114.302 339.719
C 115.336 340.441 118.255 338.67 119.373 338.311
C 124.462 336.676 129.826 335.437 134.705 333.231
C 134.858 332.643 134.539 331.991 134.374 331.43
C 132.809 330.821 130.785 331.86 129.284 332.359
C 125.634 333.571 121.969 334.955 118.476 336.569
C 116.729 337.377 115.135 337.83 114.302 339.719 Z
M 136.914 322.988
C 139.438 318.194 140.409 312.42 142.418 307.388
C 143.059 305.593 143.701 303.802 144.307 301.995
C 145.575 298.656 147.306 294.997 147.975 291.489
C 149.248 289.262 149.929 286.354 150.8 283.933
C 154.659 272.281 159.551 260.945 162.456 248.996
C 164.048 242.443 165.794 234.932 164.007 228.256
C 163.078 229.74 162.302 232.089 162.018 233.834
C 156.477 244.775 151.678 256.263 147.223 267.685
C 145.502 272.098 143.017 276.314 141.6 280.831
C 140.568 282.908 139.633 285.131 138.817 287.3
C 138.372 288.284 137.931 289.288 137.567 290.304
C 137.299 290.731 137.081 291.2 136.862 291.654
C 134.674 296.35 132.895 301.263 130.636 305.916
C 129.3 308.667 127.411 311.305 126.255 314.113
C 127.424 314.704 129.578 313.192 131.066 313.729
C 133.468 314.595 133.964 317.657 132.034 319.276
C 129.44 321.45 125.712 321.493 122.973 323.401
C 121.591 324.364 120.813 326.137 120.189 327.643
C 121.073 328.034 123.633 326.795 124.586 326.476
C 127.121 325.628 129.839 324.859 132.467 324.369
C 133.672 324.144 134.811 323.9 135.97 324.434
C 136.486 326.227 136.73 324.47 136.855 323.471
C 136.875 323.31 136.894 323.149 136.914 322.988 Z
M 131.24 438.377
C 131.782 440.435 132.506 443.238 133.919 444.858
C 136.255 445.723 138.379 446.183 140.508 447.597
C 147.863 452.483 151.529 461.582 150.316 470.226
C 149.761 474.182 147.625 476.984 146.334 480.583
C 146.69 482.723 147.988 484.854 148.535 486.988
C 149.724 487.072 151.218 484.057 151.786 483.12
C 154.596 478.482 156.427 473.651 156.653 468.2
C 157.149 456.241 151.087 445.575 140.15 440.524
C 137.175 439.151 134.534 438.274 131.24 438.377 Z
M 135.663 449.104
C 135.775 452.548 137.797 456.178 138.945 459.403
C 140.955 465.043 142.221 471.169 144.869 476.552
C 145.3 476.347 145.472 475.073 145.655 474.631
C 146.474 472.656 147.205 470.644 147.304 468.489
C 147.652 460.972 143.86 450.94 135.663 449.104 Z
M 157.367 514.949
C 157.017 516.585 159.145 518.353 160.342 519.182
C 160.792 519.493 161.623 520.178 162.137 519.727
C 162.358 517.612 158.966 515.636 157.367 514.949 Z"
opacity="1" fill="rgb(9,11,10)" fill-rule="evenodd" />
<path d="
M 91.231 405.368
C 91.96 406.1 91.695 409.419 91.697 410.499
C 91.348 411.184 90.716 411.798 90.254 412.422
C 89.314 413.817 89.307 415.22 88.848 416.783
C 88.331 418.541 87.646 420.272 86.941 421.94
C 86.672 422.575 86.81 423.69 87.754 423.384
C 86.345 426.574 83.952 429.89 84.229 433.544
C 84.346 435.097 84.955 436.714 85.536 438.147
C 86.512 440.553 87.841 443.23 89.403 445.304
C 89.953 446.035 90.698 445.964 90.502 444.989
C 93.291 448.647 92.889 453.938 94.912 457.882
C 95.923 459.852 98.403 461.637 100.663 460.733
C 105.343 457.181 105.893 450.182 110.493 446.368
C 111.198 448.106 113.03 451.575 112.391 453.426
C 110.655 455.582 109.929 458.368 109.355 461.025
C 107.372 470.2 110.16 478.91 117.594 484.884
C 116.602 485.987 114.469 483.593 113.901 482.934
C 111.075 479.654 109.53 475.685 106.979 472.239
C 104.187 468.469 100.748 466.641 96.877 464.205
C 95.081 463.075 93.422 461.624 91.547 460.639
C 90.723 460.206 89.816 459.79 88.896 459.618
C 88.43 459.532 87.771 459.75 87.388 459.471
C 87.845 456.54 87.592 453.572 86.714 450.736
C 85.552 446.988 83.591 443.531 80.709 440.83
C 69.083 429.937 49.468 435.64 44.377 450.237
C 43.324 453.258 42.737 456.651 43.054 459.855
C 43.459 463.957 45.283 468.069 47.485 471.512
C 46.848 471.472 46.589 472.409 46.69 472.908
C 46.954 474.202 47.749 475.39 48.603 476.368
C 47.286 476.163 45.977 478.005 44.904 477.603
C 34.584 466.264 34.534 448.384 45.554 437.391
C 50.188 432.644 56.863 429.657 63.496 429.405
C 67.45 429.255 71.885 430.565 75.68 429.165
C 79.787 427.65 81.946 424.167 84.018 420.556
C 86.773 415.754 89.375 410.592 91.231 405.368 Z"
opacity="1" fill="rgb(175,176,177)" fill-rule="evenodd" />
<path d="
M 87.388 459.471
C 87.068 462.034 86.56 464.579 85.508 466.955
C 82.162 474.504 75.143 478.334 67.466 480.173
C 59.741 480.817 52.159 477.742 47.485 471.512
C 45.283 468.069 43.459 463.957 43.054 459.855
C 42.737 456.651 43.324 453.258 44.377 450.237
C 49.468 435.64 69.083 429.937 80.709 440.83
C 83.591 443.531 85.552 446.988 86.714 450.736
C 87.592 453.572 87.845 456.54 87.388 459.471 Z
M 46.453 455.104
C 46.118 457.88 46.388 460.465 47.113 463.163
C 47.703 465.361 48.858 467.504 50.188 469.341
C 51.46 471.101 53.049 472.62 54.842 473.842
C 66.504 481.785 82.495 473.494 84.157 459.905
C 84.499 457.112 84.221 454.351 83.337 451.682
C 81.631 446.525 78.054 442.104 72.976 439.926
C 61.784 435.127 47.922 442.95 46.453 455.104 Z"
opacity="1" fill="rgb(8,10,10)" fill-rule="evenodd" />
<path d="
M 78.904 221.627
C 78.657 222.256 78.777 223.089 78.432 223.684
C 77.256 225.711 72.974 226.471 70.99 227.343
C 67.297 228.968 63.444 230.307 59.642 231.682
C 57.008 232.635 54.076 233.63 52.011 235.612
C 47.954 239.505 49.064 244.958 49.993 249.915
C 51.662 258.821 54.334 267.282 57.606 275.723
C 58.699 278.541 59.12 281.711 60.509 284.397
C 61.06 285.345 61.293 285.875 62.409 286.131
C 62.708 286.199 63.513 286.56 63.715 286.103
C 65.787 293.054 69.144 299.627 71.237 306.587
C 70.735 307.1 70.098 307.187 69.701 307.877
C 69.042 309.02 69.261 310.648 69.196 311.915
C 68.966 316.437 70.972 322.205 73.192 326.113
C 75.865 332.942 78.183 339.904 80.894 346.731
C 83.018 352.082 85.287 357.623 88.916 362.17
C 91.453 365.347 95.054 367.839 98.633 369.703
C 99.83 370.326 103.183 370.974 103.822 372.053
C 107.149 384.042 112.411 395.653 116.616 407.367
C 126.515 434.946 137.548 462.207 146.131 490.238
C 147.55 494.871 149.209 499.473 150.905 504.012
C 152.211 507.506 154.048 510.884 154.84 514.547
C 153.926 513.881 152.831 513.785 151.867 513.243
C 150.132 512.267 148.387 510.94 146.948 509.566
C 146.194 508.591 146.914 507.508 146.653 506.429
C 146.33 505.095 145.475 503.987 145.201 502.552
C 145.442 502.147 148.509 499.582 146.733 499.366
C 145.434 499.675 145.417 498.829 145.036 497.827
C 144.352 496.03 143.725 494.224 143.081 492.418
C 140.272 484.534 139.093 475.995 135.752 468.315
C 133.192 462.432 131.436 456.217 129.307 450.174
C 126.606 442.504 123.521 434.908 120.34 427.421
C 118.637 423.413 117.38 419.206 115.486 415.277
C 114.162 412.531 112.881 409.789 111.252 407.204
C 109.92 405.09 108.194 403.219 106.95 401.054
C 106.21 398.651 104.77 396.318 103.061 394.468
C 102.559 393.666 102.151 392.917 102.476 391.941
C 108.474 390.347 105.652 379.803 99.641 381.336
C 98.339 381.668 97.354 382.552 96.419 383.472
C 96.299 382.491 95.416 381.437 94.941 380.571
C 93.448 377.851 91.579 375.125 89.506 372.811
C 88.9 372.134 86.925 369.196 86.174 370.569
C 85.614 369.741 85.526 368.616 85.193 367.682
C 84.307 365.198 83.413 362.713 82.471 360.249
C 79.538 352.572 76.859 344.804 73.995 337.101
C 66.117 315.916 57.591 294.882 50.484 273.422
C 47.972 265.84 45.648 258.174 44.507 250.248
C 43.945 246.348 43.385 241.828 44.95 238.067
C 47.616 231.663 54.245 229.194 60.34 227.122
C 66.455 225.042 72.519 222.762 78.904 221.627 Z"
opacity="1" fill="rgb(191,190,190)" fill-rule="evenodd" />
<path d="
M 44.904 477.603
C 45.977 478.005 47.286 476.163 48.603 476.368
C 53.09 479.229 57.069 481.211 62.504 481.315
C 64.13 481.347 66.622 481.922 67.466 480.173
C 75.143 478.334 82.162 474.504 85.508 466.955
C 86.56 464.579 87.068 462.034 87.388 459.471
C 87.771 459.75 88.43 459.532 88.896 459.618
C 89.816 459.79 90.723 460.206 91.547 460.639
C 93.422 461.624 95.081 463.075 96.877 464.205
C 100.748 466.641 104.187 468.469 106.979 472.239
C 109.53 475.685 111.075 479.654 113.901 482.934
C 114.469 483.593 116.602 485.987 117.594 484.884
C 120.303 486.626 122.837 487.732 125.953 488.507
C 127.329 490.304 128.412 493.418 128.978 495.586
C 128.356 495.85 127.182 495.401 126.519 495.335
C 123.971 495.081 121.61 494.258 119.326 493.112
C 114.405 490.644 110.091 486.619 107.163 481.967
C 103.95 476.861 101.763 470.773 94.996 469.795
C 91.066 469.227 89.269 472.399 87.217 475.186
C 85.791 477.122 84.2 478.915 82.239 480.327
C 70.841 488.534 54.569 488.911 44.904 477.603 Z"
opacity="1" fill="rgb(119,120,124)" fill-rule="evenodd" />
<path d="
M 47.485 471.512
C 52.159 477.742 59.741 480.817 67.466 480.173
C 66.622 481.922 64.13 481.347 62.504 481.315
C 57.069 481.211 53.09 479.229 48.603 476.368
C 47.749 475.39 46.954 474.202 46.69 472.908
C 46.589 472.409 46.848 471.472 47.485 471.512 Z"
opacity="1" fill="rgb(187,179,185)" fill-rule="evenodd" />
<path d="
M 76.72 289.476
C 76.627 290.235 75.392 289.076 75.145 288.858
C 72.379 285.492 70.857 281.025 68.309 277.447
C 67.803 276.737 66.868 274.153 65.926 274.442
C 65.79 275.386 66.255 276.022 66.488 276.912
C 67.093 279.223 68.153 281.302 68.82 283.559
C 69.866 287.096 71.374 290.379 72.656 293.83
C 74.668 299.247 76.448 304.764 78.438 310.197
C 79.756 313.795 83.268 319.299 81.188 323.114
C 79.316 317.384 76.84 311.851 74.729 306.207
C 69.246 291.547 63.818 276.767 59.324 261.771
C 57.876 256.941 56.091 252.013 55.312 247.021
C 54.882 244.268 54.822 241.748 56.884 239.631
C 58.019 239.995 58.058 241.632 59.593 241.732
C 62.371 241.913 65.713 240.364 68.253 239.366
C 72.893 237.543 77.727 236.32 82.371 234.559
C 85.387 233.415 88.496 232.61 91.575 231.664
C 91.967 231.544 94.723 230.988 94.736 231.179
C 92.781 232.657 89.553 232.877 87.284 233.813
C 81.647 236.14 75.939 238.322 70.27 240.588
C 67.356 241.752 63.048 242.914 61.021 245.427
C 60.349 247.535 61.292 250.018 63.281 251.078
C 66.033 251.61 69.985 249.516 72.576 248.639
C 79.565 246.272 86.811 243.584 93.962 241.934
C 94.87 241.4 95.812 241.121 96.75 240.662
C 96.957 240.561 97.676 240.057 97.926 240.374
C 98.265 240.805 96.344 241.521 96.15 241.596
C 93.961 242.446 91.844 243.429 89.674 244.324
C 84.514 246.452 79.376 248.626 74.25 250.857
C 71.619 252.002 68.545 252.725 66.08 254.187
C 63.001 256.014 64.033 259.977 66.85 261.56
C 69.008 262.019 72.414 260.223 74.478 259.575
C 80.731 257.612 86.997 254.996 93.434 253.713
C 95.522 253.297 97.398 252.282 99.499 251.963
C 99.945 251.896 100.944 251.205 101.365 251.509
C 101.795 251.82 100.753 252.096 100.712 252.112
C 99.81 252.461 98.85 252.64 97.962 253.008
C 95.595 253.987 93.234 254.934 90.881 255.937
C 85.758 258.121 80.72 260.51 75.6 262.702
C 73.291 263.691 70.086 264.407 68.459 266.447
C 67.55 268.967 69.549 272.661 72.419 272.209
C 76.556 271.559 80.662 269.702 84.65 268.451
C 89.324 266.984 94.175 265.853 98.924 264.661
C 100.984 264.144 103.331 263.533 105.302 262.674
C 105.769 262.47 106.891 261.878 107.35 262.415
C 107.586 262.691 106.782 262.884 106.45 263.032
C 105.634 263.393 104.76 263.635 103.916 263.913
C 101.642 264.661 99.398 265.499 97.206 266.462
C 91.385 269.018 85.655 271.728 79.677 273.912
C 77.469 274.719 73.886 275.405 72.551 277.485
C 71.962 279.324 73.286 283.092 75.493 283.319
C 77.403 283.515 79.264 282.53 81.047 282.028
C 88.458 279.943 95.907 277.804 103.259 275.56
C 105.127 274.99 107.03 274.612 108.848 273.899
C 109.719 273.557 110.534 272.871 111.525 273.049
C 111.329 273.804 110.004 274.035 109.358 274.265
C 107.51 274.921 105.599 275.649 103.789 276.416
C 96.979 279.305 90.268 282.45 83.382 285.176
C 81.468 285.934 77.018 287.048 76.72 289.476 Z"
opacity="0.996" fill="rgb(190,185,184)" fill-rule="evenodd" />
<path d="
M 76.72 289.476
C 77.044 291.025 77.832 293.818 79.672 294.195
C 82.214 294.716 86.28 292.978 88.656 292.142
C 93.967 290.272 99.477 288.669 104.93 287.259
C 107.269 286.655 109.606 285.708 111.98 285.384
C 112.508 285.312 113.993 283.857 114.252 284.904
C 114.322 285.185 112.437 285.722 112.255 285.787
C 110.434 286.433 108.603 287.175 106.859 288.003
C 101.654 290.472 96.4 292.816 91.072 295.021
C 88.382 296.134 85.36 296.935 82.947 298.606
C 80.248 300.475 81.365 303.567 83.55 305.431
C 83.009 305.286 82.368 305.843 82.303 306.39
C 82.242 306.912 82.748 307.807 82.825 308.376
C 83.075 310.223 82.928 312.098 83.212 313.937
C 83.587 316.369 85.645 317.837 86.752 319.875
C 87.396 321.062 87.29 322.52 87.617 323.809
C 88.172 325.994 88.991 328.059 89.856 330.136
C 90.583 331.879 90.972 334.908 92.253 336.283
C 92.927 337.005 94.764 336.604 94.516 335.495
C 95.053 336.284 95.367 337.342 96.209 337.896
C 98.082 339.13 102.165 337.069 104.012 336.47
C 110.505 334.367 116.926 332.151 123.294 329.708
C 125.856 328.725 128.62 328.358 131.159 327.395
C 131.454 327.284 133.247 326.483 133.459 326.905
C 133.792 327.57 132.15 328.281 131.804 328.413
C 129.732 329.198 127.705 330.168 125.605 330.873
C 119.351 332.974 113.443 335.546 107.31 337.96
C 104.298 339.145 100.921 339.887 98.486 342.135
C 98.391 343.48 99.016 344.959 98.757 346.252
C 96.698 345.732 95.019 347.127 92.867 345.852
C 90.051 344.183 88.793 341.2 87.496 338.356
C 85.238 333.405 82.903 328.281 81.188 323.114
C 83.268 319.299 79.756 313.795 78.438 310.197
C 76.448 304.764 74.668 299.247 72.656 293.83
C 71.374 290.379 69.866 287.096 68.82 283.559
C 68.153 281.302 67.093 279.223 66.488 276.912
C 66.255 276.022 65.79 275.386 65.926 274.442
C 66.868 274.153 67.803 276.737 68.309 277.447
C 70.857 281.025 72.379 285.492 75.145 288.858
C 75.392 289.076 76.627 290.235 76.72 289.476 Z"
opacity="1" fill="rgb(152,150,149)" fill-rule="evenodd" />
<path d="
M 71.237 306.587
C 73.105 312.928 76.048 319.041 78.599 325.129
C 80.509 329.684 82.108 334.368 84.112 338.883
C 85.96 343.046 88.106 347.794 92.994 348.888
C 97.191 349.828 102.097 347.411 106.067 346.176
C 109.788 345.019 113.66 344.015 117.325 342.691
C 123.446 340.48 129.695 337.849 136.123 336.709
C 136.371 337.394 136.315 337.954 136.169 338.657
C 133.841 341.229 129.466 342.749 126.377 344.235
C 120.298 347.159 114.173 349.877 108.353 353.286
C 108.186 352.815 105.704 351.834 105.11 351.636
C 104.099 351.297 102.774 352.248 101.801 352.49
C 100.189 352.892 98.412 352.88 96.765 352.759
C 96.011 352.704 94.991 352.343 94.254 352.535
C 93.406 352.756 92.796 353.479 92.027 353.811
C 91.808 353.906 91.361 353.443 91.273 353.693
C 91.132 354.095 91.268 354.29 91.406 354.615
C 83.842 350.107 83.355 339.699 79.068 332.861
C 77.626 330.562 76.104 326.163 73.192 326.113
C 70.972 322.205 68.966 316.437 69.196 311.915
C 69.261 310.648 69.042 309.02 69.701 307.877
C 70.098 307.187 70.735 307.1 71.237 306.587 Z"
opacity="1" fill="rgb(177,177,176)" fill-rule="evenodd" />
<path d="
M 73.192 326.113
C 76.104 326.163 77.626 330.562 79.068 332.861
C 83.355 339.699 83.842 350.107 91.406 354.615
C 93.586 356.981 97.517 357.99 100.267 359.556
C 101.347 360.17 102.889 360.739 103.198 361.935
C 102.991 365.514 102.618 368.582 103.822 372.053
C 103.183 370.974 99.83 370.326 98.633 369.703
C 95.054 367.839 91.453 365.347 88.916 362.17
C 85.287 357.623 83.018 352.082 80.894 346.731
C 78.183 339.904 75.865 332.942 73.192 326.113 Z"
opacity="1" fill="rgb(106,107,110)" fill-rule="evenodd" />
<path d="
M 83.55 305.431
C 86.264 305.774 88.996 304.258 91.53 303.518
C 98.176 301.578 105.017 299.096 111.857 297.988
C 114.122 297.621 116.263 296.411 118.502 295.896
C 118.923 295.8 119.94 294.791 120.366 295.423
C 120.491 295.609 118.615 296.377 118.454 296.448
C 116.161 297.448 113.744 298.15 111.462 299.185
C 104.209 302.474 96.671 305.11 89.445 308.432
C 88.106 309.048 86.278 309.865 85.489 311.187
C 84.611 312.659 86.231 315.237 87.338 316.165
C 89.215 317.74 92.913 315.793 94.888 315.163
C 101.873 312.937 108.845 310.692 115.922 308.799
C 117.937 308.26 120.214 307.903 122.148 307.139
C 122.619 306.953 124.01 306.005 124.49 306.508
C 125.015 307.059 122.407 307.814 122.064 307.944
C 119.228 309.02 116.359 310.036 113.508 311.074
C 108.842 312.772 104.321 314.93 99.772 316.91
C 97.174 318.041 94.214 318.83 91.812 320.343
C 89.324 321.91 89.138 326.602 92.546 327.292
C 94.135 327.49 95.859 326.713 97.333 326.205
C 100.022 325.278 102.796 324.233 105.553 323.544
C 112.179 321.985 118.861 320.134 125.341 318.069
C 126.835 317.593 128.189 316.576 129.709 316.249
C 130.315 317.157 128.603 317.661 128.025 317.907
C 125.683 318.903 123.232 319.582 120.902 320.588
C 118.466 321.64 115.942 322.281 113.487 323.281
C 109.072 325.078 104.77 327.171 100.405 329.085
C 97.26 330.465 93.696 331.352 94.516 335.495
C 94.764 336.604 92.927 337.005 92.253 336.283
C 90.972 334.908 90.583 331.879 89.856 330.136
C 88.991 328.059 88.172 325.994 87.617 323.809
C 87.29 322.52 87.396 321.062 86.752 319.875
C 85.645 317.837 83.587 316.369 83.212 313.937
C 82.928 312.098 83.075 310.223 82.825 308.376
C 82.748 307.807 82.242 306.912 82.303 306.39
C 82.368 305.843 83.009 305.286 83.55 305.431 Z"
opacity="1" fill="rgb(165,163,164)" fill-rule="evenodd" />
<path d="
M 87.754 423.384
C 89.148 421.641 90.255 419.422 91.411 417.508
C 91.887 416.719 92.965 416.938 92.928 417.943
C 90.931 423.731 86.181 428.404 86.852 434.989
C 87.225 438.646 89.292 441.62 90.502 444.989
C 90.698 445.964 89.953 446.035 89.403 445.304
C 87.841 443.23 86.512 440.553 85.536 438.147
C 84.955 436.714 84.346 435.097 84.229 433.544
C 83.952 429.89 86.345 426.574 87.754 423.384 Z"
opacity="0.996" fill="rgb(209,204,206)" fill-rule="evenodd" />
<path d="
M 96.419 383.472
C 93.391 388.155 97.557 392.421 102.476 391.941
C 102.151 392.917 102.559 393.666 103.061 394.468
C 101.569 394.712 101.273 396.229 102.17 397.284
C 103.486 398.833 105.479 399.699 106.95 401.054
C 108.194 403.219 109.92 405.09 111.252 407.204
C 112.881 409.789 114.162 412.531 115.486 415.277
C 117.38 419.206 118.637 423.413 120.34 427.421
C 123.521 434.908 126.606 442.504 129.307 450.174
C 131.436 456.217 133.192 462.432 135.752 468.315
C 139.093 475.995 140.272 484.534 143.081 492.418
C 143.725 494.224 144.352 496.03 145.036 497.827
C 145.417 498.829 145.434 499.675 146.733 499.366
C 148.509 499.582 145.442 502.147 145.201 502.552
C 144.461 499.454 142.971 496.255 141.53 493.421
C 141.045 492.468 140.677 491.325 139.986 490.504
C 139.094 487.532 139.15 484.688 137.275 482.021
C 136.673 481.543 136.062 481.33 135.308 481.538
C 134.14 475.755 131.602 469.964 129.671 464.39
C 125.949 453.647 122.3 442.929 118.388 432.252
C 116.082 425.959 114.004 418.376 109.574 413.179
C 107.172 410.359 102.836 407.878 99.445 406.45
C 96.009 398.338 92.983 390.056 90.136 381.71
C 88.886 378.045 86.853 374.382 86.174 370.569
C 86.925 369.196 88.9 372.134 89.506 372.811
C 91.579 375.125 93.448 377.851 94.941 380.571
C 95.416 381.437 96.299 382.491 96.419 383.472 Z"
opacity="1" fill="rgb(218,217,215)" fill-rule="evenodd" />
<path d="
M 91.231 405.368
C 91.804 403.8 92.489 402.263 93.324 400.819
C 94.867 402.95 96.002 406.02 96.729 408.554
C 96.961 409.365 97.488 410.476 97.35 411.318
C 95.914 413.43 94.494 415.96 92.928 417.943
C 92.965 416.938 91.887 416.719 91.411 417.508
C 90.255 419.422 89.148 421.641 87.754 423.384
C 86.81 423.69 86.672 422.575 86.941 421.94
C 87.646 420.272 88.331 418.541 88.848 416.783
C 89.307 415.22 89.314 413.817 90.254 412.422
C 90.716 411.798 91.348 411.184 91.697 410.499
C 91.695 409.419 91.96 406.1 91.231 405.368 Z"
opacity="1" fill="rgb(135,137,138)" fill-rule="evenodd" />
<path d="
M 108.353 353.286
C 106.706 354.662 105.386 356.077 104.445 358.041
C 103.856 359.272 103.82 360.76 103.198 361.935
C 102.889 360.739 101.347 360.17 100.267 359.556
C 97.517 357.99 93.586 356.981 91.406 354.615
C 91.268 354.29 91.132 354.095 91.273 353.693
C 91.361 353.443 91.808 353.906 92.027 353.811
C 92.796 353.479 93.406 352.756 94.254 352.535
C 94.991 352.343 96.011 352.704 96.765 352.759
C 98.412 352.88 100.189 352.892 101.801 352.49
C 102.774 352.248 104.099 351.297 105.11 351.636
C 105.704 351.834 108.186 352.815 108.353 353.286 Z"
opacity="1" fill="rgb(200,198,197)" fill-rule="evenodd" />
<path d="
M 96.419 383.472
C 97.354 382.552 98.339 381.668 99.641 381.336
C 105.652 379.803 108.474 390.347 102.476 391.941
C 97.557 392.421 93.391 388.155 96.419 383.472 Z"
opacity="1" fill="rgb(17,17,18)" fill-rule="evenodd" />
<path d="
M 99.445 406.45
C 102.836 407.878 107.172 410.359 109.574 413.179
C 114.004 418.376 116.082 425.959 118.388 432.252
C 122.3 442.929 125.949 453.647 129.671 464.39
C 131.602 469.964 134.14 475.755 135.308 481.538
C 135.407 482.063 135.576 482.548 135.725 483.06
C 134.091 485.434 135.223 487.942 135.651 490.635
C 136.832 498.074 140.709 505.127 146.948 509.566
C 148.387 510.94 150.132 512.267 151.867 513.243
C 152.831 513.785 153.926 513.881 154.84 514.547
C 155.009 515.136 155.355 515.683 155.322 516.305
C 146.636 515.308 139.626 510.513 135.331 502.969
C 133.429 499.628 132.388 495.828 130.95 492.277
C 123.094 472.871 116.151 452.986 109.157 433.25
C 106.842 426.72 104.103 420.35 101.72 413.849
C 100.94 411.724 99.109 408.738 99.445 406.45 Z"
opacity="1" fill="rgb(127,127,128)" fill-rule="evenodd" />
<path d="
M 103.061 394.468
C 104.77 396.318 106.21 398.651 106.95 401.054
C 105.479 399.699 103.486 398.833 102.17 397.284
C 101.273 396.229 101.569 394.712 103.061 394.468 Z"
opacity="0.996" fill="rgb(206,208,206)" fill-rule="evenodd" />
<path d="
M 124.222 357.368
C 123.777 357.552 123.052 357.367 122.534 357.453
C 120.312 357.822 118.786 358.33 116.511 357.999
C 115.318 358.048 114.399 358.681 113.379 359.237
C 112.114 359.266 110.792 358.425 110.132 359.958
C 110.867 365.933 111.746 372.01 113.546 377.773
C 113.961 379.104 114.347 380.439 114.608 381.81
C 114.682 382.197 114.902 382.966 115.369 382.986
C 114.851 384.414 114.185 385.984 113.845 387.459
C 113.777 387.757 113.71 389.011 113.247 388.618
C 111.956 386.442 111.496 383.615 110.565 381.264
C 108.804 376.818 105.998 370.879 106.331 365.985
C 106.438 364.399 107.45 362.744 108.013 361.27
C 108.595 359.745 108.672 357.374 109.752 356.151
C 111.771 353.866 116.126 352.437 118.852 351.176
C 120.918 350.221 122.932 349.153 125 348.201
C 125.549 347.948 127.03 347.076 127.622 347.176
C 128.22 347.276 127.17 349.445 127.068 349.732
C 126.158 352.292 125.147 354.815 124.222 357.368 Z"
opacity="1" fill="rgb(124,124,127)" fill-rule="evenodd" />
<path d="
M 113.379 359.237
C 112.252 360.321 111.594 359.912 110.132 359.958
C 110.792 358.425 112.114 359.266 113.379 359.237 Z"
opacity="1" fill="rgb(192,184,185)" fill-rule="evenodd" />
<path d="
M 110.132 359.958
C 111.594 359.912 112.252 360.321 113.379 359.237
C 114.399 358.681 115.318 358.048 116.511 357.999
C 118.786 358.33 120.312 357.822 122.534 357.453
C 123.052 357.367 123.777 357.552 124.222 357.368
C 121.509 363.903 119.799 370.848 117.238 377.459
C 116.553 379.229 116.231 381.328 115.369 382.986
C 114.902 382.966 114.682 382.197 114.608 381.81
C 114.347 380.439 113.961 379.104 113.546 377.773
C 111.746 372.01 110.867 365.933 110.132 359.958 Z
M 114.011 363.095
C 114.142 363.313 115.439 364.481 115.651 364.088
C 115.9 363.627 115.405 363.096 115.687 362.578
C 116.201 361.633 117.34 360.259 116.512 359.21
C 114.906 359.652 114.656 361.784 114.011 363.095 Z"
opacity="1" fill="rgb(211,209,207)" fill-rule="evenodd" />
<path d="
M 114.011 363.095
C 114.656 361.784 114.906 359.652 116.512 359.21
C 117.34 360.259 116.201 361.633 115.687 362.578
C 115.405 363.096 115.9 363.627 115.651 364.088
C 115.439 364.481 114.142 363.313 114.011 363.095 Z"
opacity="1" fill="rgb(190,193,190)" fill-rule="evenodd" />
<path d="
M 114.302 339.719
C 115.135 337.83 116.729 337.377 118.476 336.569
C 121.969 334.955 125.634 333.571 129.284 332.359
C 130.785 331.86 132.809 330.821 134.374 331.43
C 134.539 331.991 134.858 332.643 134.705 333.231
C 129.826 335.437 124.462 336.676 119.373 338.311
C 118.255 338.67 115.336 340.441 114.302 339.719 Z"
opacity="1" fill="rgb(108,107,113)" fill-rule="evenodd" />
<path d="
M 137.567 290.304
C 137.47 291.522 140.374 290.989 141.022 291.803
C 141.456 292.349 141.321 293.581 141.354 294.239
C 141.451 296.154 141.805 298.129 141.712 300.042
C 141.369 307.123 137.251 313.501 136.373 320.449
C 136.249 321.436 136.928 322.035 136.914 322.988
C 136.894 323.149 136.875 323.31 136.855 323.471
C 136.233 323.707 136.036 323.727 135.97 324.434
C 134.811 323.9 133.672 324.144 132.467 324.369
C 129.839 324.859 127.121 325.628 124.586 326.476
C 123.633 326.795 121.073 328.034 120.189 327.643
C 120.813 326.137 121.591 324.364 122.973 323.401
C 125.712 321.493 129.44 321.45 132.034 319.276
C 133.964 317.657 133.468 314.595 131.066 313.729
C 129.578 313.192 127.424 314.704 126.255 314.113
C 127.411 311.305 129.3 308.667 130.636 305.916
C 132.895 301.263 134.674 296.35 136.862 291.654
C 137.081 291.2 137.299 290.731 137.567 290.304 Z"
opacity="1" fill="rgb(160,160,160)" fill-rule="evenodd" />
<path d="
M 131.24 438.377
C 134.534 438.274 137.175 439.151 140.15 440.524
C 151.087 445.575 157.149 456.241 156.653 468.2
C 156.427 473.651 154.596 478.482 151.786 483.12
C 151.218 484.057 149.724 487.072 148.535 486.988
C 147.988 484.854 146.69 482.723 146.334 480.583
C 147.625 476.984 149.761 474.182 150.316 470.226
C 151.529 461.582 147.863 452.483 140.508 447.597
C 138.379 446.183 136.255 445.723 133.919 444.858
C 132.506 443.238 131.782 440.435 131.24 438.377 Z"
opacity="1" fill="rgb(156,156,157)" fill-rule="evenodd" />
<path d="
M 135.725 483.06
C 136.149 485.286 137.326 487.624 138.169 489.716
C 138.437 490.383 139.32 491.123 139.986 490.504
C 140.677 491.325 141.045 492.468 141.53 493.421
C 142.971 496.255 144.461 499.454 145.201 502.552
C 145.475 503.987 146.33 505.095 146.653 506.429
C 146.914 507.508 146.194 508.591 146.948 509.566
C 140.709 505.127 136.832 498.074 135.651 490.635
C 135.223 487.942 134.091 485.434 135.725 483.06 Z"
opacity="1" fill="rgb(127,127,126)" fill-rule="evenodd" />
<path d="
M 135.308 481.538
C 136.062 481.33 136.673 481.543 137.275 482.021
C 139.15 484.688 139.094 487.532 139.986 490.504
C 139.32 491.123 138.437 490.383 138.169 489.716
C 137.326 487.624 136.149 485.286 135.725 483.06
C 135.576 482.548 135.407 482.063 135.308 481.538 Z"
opacity="0.996" fill="rgb(154,154,158)" fill-rule="evenodd" />
<path d="
M 136.855 323.471
C 136.73 324.47 136.486 326.227 135.97 324.434
C 136.036 323.727 136.233 323.707 136.855 323.471 Z"
opacity="1" fill="rgb(245,241,241)" fill-rule="evenodd" />
<path d="
M 162.018 233.834
C 161.94 235.895 162.365 237.925 162.118 239.992
C 160.668 252.15 155.88 264.448 151.75 275.895
C 151.418 276.474 150.35 275.905 149.815 276.625
C 149.282 277.342 149.55 278.141 149.294 278.908
C 149.151 279.335 148.701 279.46 148.682 279.948
C 148.663 280.441 149.247 280.455 149.218 280.761
C 149.149 281.48 148.313 282.127 148.245 283
C 148.565 283.535 148.897 283.132 149.192 282.759
C 149.75 283.125 150.295 283.495 150.8 283.933
C 149.929 286.354 149.248 289.262 147.975 291.489
C 147.102 291.239 145.359 291.108 144.879 290.349
C 144.515 287.86 144.723 284.651 143.428 282.403
C 143.014 281.686 142.072 281.526 141.6 280.831
C 143.017 276.314 145.502 272.098 147.223 267.685
C 151.678 256.263 156.477 244.775 162.018 233.834 Z"
opacity="1" fill="rgb(161,161,164)" fill-rule="evenodd" />
<path d="
M 151.75 275.895
C 150.963 278.22 150.221 280.527 149.192 282.759
C 148.897 283.132 148.565 283.535 148.245 283
C 148.313 282.127 149.149 281.48 149.218 280.761
C 149.247 280.455 148.663 280.441 148.682 279.948
C 148.701 279.46 149.151 279.335 149.294 278.908
C 149.55 278.141 149.282 277.342 149.815 276.625
C 150.35 275.905 151.418 276.474 151.75 275.895 Z"
opacity="0.996" fill="rgb(160,164,167)" fill-rule="evenodd" />
<path d="
M 173.071 394.514
C 174.84 390.602 173.922 385.152 174.011 380.92
C 174.047 379.188 174.096 377.458 174.137 375.727
C 174.143 375.492 174.251 374.224 173.841 374.149
C 173.64 374.112 173.199 374.83 173.077 374.976
C 173.215 370.766 172.862 366.541 173.012 362.323
C 173.084 360.299 173.363 357.136 172.327 355.363
C 170.546 354.223 167.421 353.92 165.334 354.088
C 165.213 353.141 165.334 352.193 165.245 351.246
C 173.463 350.793 181.775 351.078 190.005 351.056
C 196.569 351.039 203.442 350.61 209.681 353.03
C 218.801 356.567 222.645 367.753 216.01 375.547
C 213.01 379.07 208.779 379.512 204.934 381.521
C 206.209 382.57 209.155 382.707 210.748 383.204
C 214.255 384.299 217.734 386.261 220.037 389.174
C 227.344 398.419 222.822 410.402 212.968 415.272
C 204.895 419.261 196.024 418.987 187.281 418.879
C 180.06 418.789 172.861 418.993 165.649 419.131
C 165.775 418.156 165.873 417.168 165.931 416.188
C 167.799 415.92 170.873 415.822 172.434 414.721
C 173.055 412.897 172.825 410.889 172.937 408.991
C 173.222 404.165 172.875 399.343 173.071 394.514 Z
M 184.979 384.403
C 184.934 391.417 185.171 398.488 185.338 405.505
C 185.402 408.203 184.739 412.47 186.003 414.935
C 190.896 415.046 195.797 415.951 200.618 414.499
C 202.866 413.822 205.143 412.742 206.735 410.953
C 211.532 405.563 211.018 394.931 206.596 389.538
C 203.718 386.028 199.422 385.036 195.141 384.516
C 192.591 384.206 189.92 383.993 187.349 384.064
C 186.684 384.083 185.433 383.935 184.979 384.403 Z
M 185.716 354.729
C 185.167 363.103 185.429 371.863 185.653 380.256
C 186.848 380.646 188.437 380.463 189.705 380.524
C 194.244 380.744 199.197 380.446 202.724 377.241
C 208.21 372.255 208.107 361.817 202.099 357.234
C 197.617 353.815 191.031 354.464 185.716 354.729 Z"
opacity="1" fill="rgb(137,140,143)" fill-rule="evenodd" />
<path d="
M 173.077 374.976
C 173.199 374.83 173.64 374.112 173.841 374.149
C 174.251 374.224 174.143 375.492 174.137 375.727
C 174.096 377.458 174.047 379.188 174.011 380.92
C 173.922 385.152 174.84 390.602 173.071 394.514
C 173.279 388.058 172.698 381.478 173.077 374.976 Z"
opacity="0.996" fill="rgb(200,195,200)" fill-rule="evenodd" />
<path d="
M 283.708 399.438
C 282.701 401.006 281.794 402.739 281.305 404.641
C 281.138 405.29 281.545 405.853 281.354 406.438
C 276.189 420.222 255.931 423.771 244.29 416.914
C 235.448 411.706 231.268 400.559 233.153 390.628
C 234.479 383.64 239.098 376.664 245.425 373.21
C 254.695 368.15 268.026 369.136 276.023 376.239
C 282.827 382.281 284.388 390.839 283.708 399.438 Z
M 245.896 388.596
C 244.944 396.763 245.719 406.567 251.252 413.048
C 255.032 417.476 262.391 419.006 266.727 414.4
C 269.14 411.835 270.232 407.945 270.687 404.543
C 271.799 396.212 271.295 384.448 265.761 377.642
C 264.838 376.507 263.741 375.479 262.446 374.78
C 261.408 374.221 260.274 373.906 259.111 373.746
C 250.503 372.562 246.723 381.497 245.896 388.596 Z"
opacity="1" fill="rgb(119,122,126)" fill-rule="evenodd" />
<path d="
M 283.708 399.438
C 283.403 401.847 282.65 404.373 281.354 406.438
C 281.545 405.853 281.138 405.29 281.305 404.641
C 281.794 402.739 282.701 401.006 283.708 399.438 Z"
opacity="0.996" fill="rgb(200,204,209)" fill-rule="evenodd" />
<path d="
M 342.395 388.958
C 341.971 391.371 342.524 393.922 342.382 396.412
C 342.078 401.738 340.639 406.847 337.854 411.378
C 330.381 421.665 314.36 422.778 303.952 416.907
C 300.294 414.843 296.89 412.103 295.304 408.106
C 295.797 407.202 295.008 402.335 293.435 403.014
C 289.862 389.618 296.995 374.819 310.649 371.056
C 323.146 367.612 341.512 373.926 342.395 388.958 Z
M 305.421 387.101
C 304.405 395.145 305.118 406.812 310.757 413.199
C 314.64 417.596 322.136 418.976 326.344 414.191
C 328.672 411.546 329.629 407.875 330.074 404.459
C 330.936 397.848 330.596 390.631 328.427 384.289
C 327.602 381.877 326.66 379.322 324.961 377.366
C 321.332 373.188 314.217 372.349 310.102 376.266
C 307.212 379.016 305.908 383.243 305.421 387.101 Z"
opacity="1" fill="rgb(145,147,150)" fill-rule="evenodd" />
<path d="
M 293.435 403.014
C 295.008 402.335 295.797 407.202 295.304 408.106
C 294.697 406.39 293.944 404.771 293.435 403.014 Z"
opacity="1" fill="rgb(200,204,200)" fill-rule="evenodd" />
<path d="
M 342.395 388.958
C 343.396 390.408 343.31 393.314 343.348 395.021
C 343.473 400.641 341.902 407.206 337.854 411.378
C 340.639 406.847 342.078 401.738 342.382 396.412
C 342.524 393.922 341.971 391.371 342.395 388.958 Z"
opacity="0.996" fill="rgb(200,202,206)" fill-rule="evenodd" />
<path d="
M 370.333 393.582
C 369.752 393.956 369.801 394.673 370.46 394.887
C 369.634 395.285 369.826 398.867 369.823 399.817
C 369.809 403.467 369.755 407.11 369.687 410.759
C 369.659 412.25 369.371 414.451 370.085 415.803
C 371.401 415.971 374.976 415.871 375.871 416.778
C 375.924 417.478 375.979 418.203 375.822 418.89
C 370.375 418.729 364.871 418.703 359.424 418.886
C 356.924 418.971 354.171 419.598 351.696 419.23
C 351.7 418.441 351.627 417.604 351.856 416.845
C 353.791 416.313 355.752 415.947 357.64 415.253
C 358.321 414.157 358.054 412.345 358.055 411.09
C 358.059 407.959 357.947 404.831 357.921 401.7
C 357.827 390.303 358.27 378.904 358.313 367.503
C 358.326 364.245 358.339 360.987 358.347 357.729
C 358.35 356.318 358.612 354.375 357.797 353.145
C 356.37 351.993 354.02 351.944 352.246 351.959
C 351.793 351.172 351.862 350.199 351.836 349.318
C 352.94 348.534 354.874 348.583 356.198 348.366
C 359.217 347.872 362.226 347.383 365.201 346.655
C 366.569 346.321 368.567 345.554 369.941 345.876
C 369.478 357.101 369.91 368.426 370.121 379.657
C 370.207 384.232 370.621 389.028 370.333 393.582 Z"
opacity="1" fill="rgb(126,130,133)" fill-rule="evenodd" />
<path d="
M 370.333 393.582
C 374.662 389.916 378.703 385.527 382.834 381.601
C 384.631 379.895 387.247 377.984 388.071 375.563
C 386.457 374.731 384.513 375.205 382.905 374.416
C 382.785 373.504 382.81 372.715 382.954 371.81
C 384.374 371.264 386.472 371.712 387.993 371.675
C 391.191 371.597 394.386 371.516 397.585 371.477
C 399.129 371.459 401.042 371.095 402.523 371.59
C 402.516 372.326 402.681 372.952 402.534 373.679
C 400.91 374.576 398.792 374.246 397.104 375.159
C 391.1 378.406 385.589 383.751 380.789 388.537
C 380.781 389.373 381.756 390.091 382.264 390.739
C 383.636 392.488 385.022 394.229 386.349 396.014
C 388.918 399.469 391.642 402.807 394.245 406.234
C 396.667 409.421 399.084 413.744 402.725 415.692
C 403.686 416.206 404.803 416.339 405.827 416.686
C 406.199 417.282 406.234 418.098 406.161 418.796
C 400.907 419.155 395.384 417.957 390.199 419.137
C 388.746 418.402 387.315 415.299 386.209 413.941
C 382.662 409.589 379.263 405.107 375.822 400.672
C 374.291 398.7 372.743 396.056 370.46 394.887
C 369.801 394.673 369.752 393.956 370.333 393.582 Z"
opacity="1" fill="rgb(126,128,131)" fill-rule="evenodd" />
<path d="
M 410.941 392.097
C 412.413 384.645 416.253 376.899 423.302 373.201
C 433.965 367.607 448.986 370.038 453.66 382.207
C 454.849 385.304 455.236 389.013 455.01 392.3
C 454.361 392.81 453.118 392.575 452.333 392.565
C 450.389 392.54 448.444 392.565 446.499 392.573
C 438.431 392.609 430.359 392.739 422.295 392.779
C 422.652 395.902 422.806 398.964 423.947 401.952
C 427.031 410.025 435.137 413.875 443.439 412.509
C 445.803 412.12 447.971 411.272 450.02 410.038
C 451.073 409.404 452.253 408.162 453.474 408.114
C 454.05 408.526 454.519 408.886 454.796 409.552
C 454.258 411.574 451.517 413.648 449.948 414.888
C 444.074 419.528 436.32 421.564 429.014 419.821
C 425.672 419.023 422.38 417.766 419.591 415.719
C 412.259 410.335 409.799 400.777 410.941 392.097 Z
M 422.458 387.608
C 422.44 388.109 422.396 388.608 422.362 389.109
C 424.511 389.547 427.289 388.943 429.505 388.924
C 434.025 388.884 438.651 389.193 443.157 388.89
C 443.502 388.647 443.268 386.112 443.24 385.637
C 443.047 382.346 441.977 378.597 439.533 376.253
C 438.568 375.327 437.376 374.673 436.085 374.335
C 427.556 372.105 423.641 380.792 422.458 387.608 Z"
opacity="1" fill="rgb(89,94,98)" fill-rule="evenodd" />
<path d="
M 464.91 393.097
C 467.476 380.27 477.253 371.099 490.487 370.092
C 493.093 369.893 495.578 370.173 498.145 370.623
C 499.114 370.793 500.172 371.34 501.141 371.382
C 500.54 367.143 500.991 362.709 501.054 358.447
C 501.078 356.853 501.285 354.227 500.022 353.07
C 498.341 351.528 496.141 352.323 494.204 351.635
C 494.093 350.793 494.045 349.96 493.963 349.115
C 496.434 348.261 499.356 348.096 501.934 347.642
C 505.53 347.008 509.05 345.954 512.684 345.551
C 513.146 350.767 512.684 356.25 512.682 361.5
C 512.676 372.333 512.689 383.166 512.657 393.998
C 512.644 398.332 512.623 402.666 512.65 407
C 512.664 409.184 512.314 411.823 513.233 413.857
C 515.054 414.65 517.671 414.447 519.619 414.321
C 519.833 415.186 519.872 416.023 519.875 416.911
C 513.659 417.965 507.456 419.052 501.251 420.178
C 500.615 418.478 501.158 415.921 501.043 414.085
C 499.52 414.748 498.166 416.203 496.681 417.038
C 493.637 418.75 490.355 420.062 486.847 420.337
C 471.877 421.509 462.846 406.564 464.91 393.097 Z
M 476.925 389.614
C 475.784 399.38 479.548 412.515 490.944 413.724
C 492.605 413.9 494.194 413.768 495.814 413.363
C 497.719 412.887 499.213 411.975 500.75 410.792
C 501.459 408.502 500.86 405.154 500.873 402.743
C 500.9 397.46 501.072 392.174 501.148 386.887
C 501.179 384.729 501.791 380.629 500.526 378.787
C 496.269 372.584 486.461 372.885 481.68 378.149
C 478.579 381.565 477.924 385.318 476.925 389.614 Z"
opacity="1" fill="rgb(53,61,67)" fill-rule="evenodd" />
<path d="
M 528.478 382.1
C 529.73 367.52 540.137 354.102 554.538 350.486
C 570.042 346.593 588.088 351.226 596.923 365.271
C 598.899 368.411 600.206 371.829 601.096 375.415
C 601.987 379.009 602.521 383.144 602.035 386.841
C 600.844 395.9 598.186 404.809 591.057 411.106
C 575.075 425.221 547.054 423.43 534.289 405.764
C 529.481 399.11 527.786 390.163 528.478 382.1 Z
M 542.416 376.104
C 541.021 388.371 543.967 403.525 553.8 411.831
C 561.863 418.643 575.257 418.607 582.214 410.169
C 585.868 405.737 587.435 399.68 588.123 394.092
C 589.546 382.538 587.088 366.891 577.894 358.792
C 570.091 351.918 557.527 350.968 549.792 358.626
C 545.331 363.043 543.107 370.022 542.416 376.104 Z"
opacity="1" fill="rgb(33,39,45)" fill-rule="evenodd" />
<path d="
M 610.357 373.395
C 611.452 372.305 614.016 372.608 615.502 372.43
C 619.985 371.892 624.471 370.688 628.961 370.355
C 629.119 378.535 628.998 386.738 628.987 394.922
C 628.982 399.032 628.443 403.942 629.622 407.919
C 632.313 417.001 644.062 414.074 649.237 409.295
C 650.052 406.248 649.367 402.162 649.37 398.998
C 649.374 394.334 649.347 389.671 649.304 385.006
C 649.281 382.5 649.57 379.661 648.935 377.222
C 647.141 375.554 644.464 376.641 642.339 376.215
C 642.283 375.159 642.212 374.118 642.183 373.061
C 643.319 372.532 644.97 372.69 646.213 372.549
C 649.461 372.179 652.713 371.825 655.945 371.322
C 657.456 371.087 659.63 370.322 661.111 370.667
C 661.434 374.05 661.136 377.592 661.137 380.998
C 661.138 387.665 661.125 394.331 661.096 400.997
C 661.084 403.832 661.019 406.673 661.11 409.506
C 661.157 410.978 661.029 412.61 661.693 413.964
C 663.543 414.703 665.805 414.44 667.761 414.528
C 667.892 415.462 668.187 416.374 668.202 417.321
C 662.015 417.73 655.944 419.153 649.819 420.057
C 649.047 417.976 649.64 415.276 649.662 413.11
C 646.426 415.387 643.675 417.899 639.822 419.182
C 637.27 420.032 634.516 420.459 631.825 420.377
C 630.144 420.325 628.386 420.07 626.788 419.54
C 625.398 419.078 624.019 418.453 622.828 417.597
C 616.989 413.4 617.366 405.895 617.331 399.504
C 617.306 395.004 617.301 390.505 617.292 386.005
C 617.286 383.268 617.859 379.719 616.863 377.136
C 615.31 375.843 612.886 375.878 610.943 375.89
C 610.274 375.286 610.381 374.235 610.357 373.395 Z"
opacity="1" fill="rgb(17,22,26)" fill-rule="evenodd" />
<path d="
M 673.91 373.935
C 674.011 373.793 674.111 373.652 674.211 373.51
C 676.471 372.934 678.786 372.583 681.052 372.031
C 681.42 371.426 681.196 370.204 681.199 369.503
C 681.209 367.213 680.73 364.552 681.173 362.319
C 684.832 360.685 688.815 358.331 692.661 357.275
C 693.32 360.58 692.722 364.616 692.708 367.997
C 692.704 369.084 692.312 371.082 692.872 371.985
C 696.015 371.625 699.342 371.888 702.506 371.891
C 703.19 371.891 705.42 371.538 705.799 372.013
C 705.844 373.636 705.802 375.25 705.748 376.87
C 702.668 377.331 699.128 376.908 696.004 376.902
C 695.143 376.9 693.34 376.589 692.729 377.232
C 692.429 386.108 692.722 395.028 692.7 403.909
C 692.691 407.78 692.613 412.065 696.769 413.856
C 700.459 415.445 702.707 412.731 706.074 412.243
C 706.602 412.688 707.085 413.302 707.133 414.008
C 707.001 415.649 703.423 417.433 702.161 418.171
C 696.542 421.462 687.154 421.895 683.164 415.843
C 680.429 411.695 681.042 406.717 681.121 401.998
C 681.212 396.515 681.202 391.029 681.212 385.545
C 681.218 382.661 681.482 379.629 681.134 376.767
C 679.477 376.815 677.804 376.791 676.153 376.964
C 675.438 377.039 674.506 377.425 673.827 377.126
C 673.797 376.054 673.695 374.992 673.91 373.935 Z"
opacity="1" fill="rgb(15,20,25)" fill-rule="evenodd" />

</svg>